<?xml version="1.0" encoding="UTF-8"?>
<svg xmlns="http://www.w3.org/2000/svg" viewBox="0 0 24 24">
    <path d="M 17.5 2 C 16.671573 2 16 2.6715729 16 3.5 C 16 3.5205056 15.999185 3.5421944 16 3.5625 L 13.3125 6.28125 C 13.3555 6.34225 13.3985 6.40475 13.4375 6.46875 L 14.375 8.03125 L 17.34375 5.09375 L 19.09375 8.03125 C 19.046105 8.177587 19 8.3377664 19 8.5 C 19 9.3284271 19.671573 10 20.5 10 C 21.328427 10 22 9.3284271 22 8.5 C 22 7.7546207 21.462429 7.1477449 20.75 7.03125 L 18.90625 3.96875 C 18.953895 3.822413 19 3.6622336 19 3.5 C 19 2.6715729 18.328427 2 17.5 2 z M 9 6 C 7.895 6 7 6.895 7 8 L 7 10 L 5 10 C 4.448 10 4 10.448 4 11 L 4 13 C 4 13.552 4.448 14 5 14 L 6 14 L 6 15 L 13 15 L 13 14 L 14 14 C 14.552 14 15 13.552 15 13 L 15 12 L 15 11 L 12.59375 6.96875 C 12.23175 6.36675 11.577 6 10.875 6 L 9 6 z M 9 8 L 10.875 8 L 12.65625 11 L 9 11 L 9 8 z M 19.40625 10.75 L 16 15 L 19 15 C 20.105 15 21 14.105 21 13 L 21 10.9375 C 20.838 10.9695 20.671 11 20.5 11 C 20.107 11 19.73725 10.912 19.40625 10.75 z M 5 16 C 3.343 16 2 17.343 2 19 C 2 20.657 3.343 22 5 22 L 14 22 C 15.657 22 17 20.657 17 19 C 17 17.343 15.657 16 14 16 L 5 16 z M 5 18 C 5.552 18 6 18.448 6 19 C 6 19.552 5.552 20 5 20 C 4.448 20 4 19.552 4 19 C 4 18.448 4.448 18 5 18 z M 8 18 C 8.552 18 9 18.448 9 19 C 9 19.552 8.552 20 8 20 C 7.448 20 7 19.552 7 19 C 7 18.448 7.448 18 8 18 z M 11 18 C 11.552 18 12 18.448 12 19 C 12 19.552 11.552 20 11 20 C 10.448 20 10 19.552 10 19 C 10 18.448 10.448 18 11 18 z M 14 18 C 14.552 18 15 18.448 15 19 C 15 19.552 14.552 20 14 20 C 13.448 20 13 19.552 13 19 C 13 18.448 13.448 18 14 18 z"/>
</svg>